HIERARCHY
ROOT hip
{
  OFFSET 0.00112043 5.09927 -9.65472
  CHANNELS 6 Xposition Yposition Zposition Zrotation Xrotation Yrotation
  JOINT abdomen
  {
    OFFSET 0 -1.186 -1.5018
    CHANNELS 3 Zrotation Xrotation Yrotation
    JOINT abdomen2
    {
      OFFSET 0 9.964 0.2134
      CHANNELS 3 Zrotation Xrotation Yrotation
      JOINT chest
      {
        OFFSET 0 13.134 -3.2573
        CHANNELS 3 Zrotation Xrotation Yrotation
        JOINT neck
        {
          OFFSET 0 20.686 -1.6905
          CHANNELS 3 Zrotation Xrotation Yrotation
          JOINT head
          {
            OFFSET 0 7.238 -0.1237
            CHANNELS 3 Zrotation Xrotation Yrotation
            End Site
            {
              OFFSET 0 0 0
            }
          }
        }
        JOINT lCollar
        {
          OFFSET 1.7069 20.075 5.0056
          CHANNELS 3 Zrotation Xrotation Yrotation
          JOINT lShldr
          {
            OFFSET 13.6458 -0.047 -4.849
            CHANNELS 3 Zrotation Xrotation Yrotation
            JOINT lForeArm
            {
              OFFSET 28.3255 -0.9759 2.2888
              CHANNELS 3 Zrotation Xrotation Yrotation
              JOINT lHand
              {
                OFFSET 22.1583 -0.53 10.8316
                CHANNELS 3 Zrotation Xrotation Yrotation
                JOINT lThumb1
                {
                  OFFSET 0.786 0.112 2.5817
                  CHANNELS 3 Zrotation Xrotation Yrotation
                  JOINT lThumb2
                  {
                    OFFSET 0.3601 -0.878 4.2331
                    CHANNELS 3 Zrotation Xrotation Yrotation
                    JOINT lThumb2_End
                    {
                      OFFSET 1.8127 -1.216 2.2227
                      CHANNELS 3 Zrotation Xrotation Yrotation
                      End Site
                      {
                        OFFSET 0.0181 -0.0122 0.0222
                      }
                    }
                  }
                }
                JOINT lCarpal1
                {
                  OFFSET 0.9571 1.114 1.7695
                  CHANNELS 3 Zrotation Xrotation Yrotation
                  JOINT lIndex1
                  {
                    OFFSET 4.1246 0.487 4.1451
                    CHANNELS 3 Zrotation Xrotation Yrotation
                    JOINT lIndex2
                    {
                      OFFSET 3.4052 -1.454 2.7682
                      CHANNELS 3 Zrotation Xrotation Yrotation
                      JOINT lIndex2_End
                      {
                        OFFSET 1.4531 -1.795 1.2713
                        CHANNELS 3 Zrotation Xrotation Yrotation
                        End Site
                        {
                          OFFSET 0.0145 -0.0179 0.0127
                        }
                      }
                    }
                  }
                  JOINT lMid1
                  {
                    OFFSET 5.6954 0.21 2.1184
                    CHANNELS 3 Zrotation Xrotation Yrotation
                    JOINT lMid2
                    {
                      OFFSET 3.9766 -1.54 2.3863
                      CHANNELS 3 Zrotation Xrotation Yrotation
                      JOINT lMid2_End
                      {
                        OFFSET 1.4042 -1.926 1.125
                        CHANNELS 3 Zrotation Xrotation Yrotation
                        End Site
                        {
                          OFFSET 0.014 -0.0193 0.0113
                        }
                      }
                    }
                  }
                }
                JOINT lCarpal2
                {
                  OFFSET 2.0956 0.66 -0.3894
                  CHANNELS 3 Zrotation Xrotation Yrotation
                  JOINT lRing1
                  {
                    OFFSET 5.0395 -0.09 2.4971
                    CHANNELS 3 Zrotation Xrotation Yrotation
                    JOINT lRing2
                    {
                      OFFSET 3.7921 -1.552 1.4806
                      CHANNELS 3 Zrotation Xrotation Yrotation
                      JOINT lRing2_End
                      {
                        OFFSET 1.4655 -1.808 0.9609
                        CHANNELS 3 Zrotation Xrotation Yrotation
                        End Site
                        {
                          OFFSET 0.0147 -0.0181 0.0096
                        }
                      }
                    }
                  }
                  JOINT lPinky1
                  {
                    OFFSET 4.9141 -1.269 0.3591
                    CHANNELS 3 Zrotation Xrotation Yrotation
                    JOINT lPinky2
                    {
                      OFFSET 3.1477 -1.685 0.8462
                      CHANNELS 3 Zrotation Xrotation Yrotation
                      JOINT lPinky2_End
                      {
                        OFFSET 0.8055 -1.585 0.7955
                        CHANNELS 3 Zrotation Xrotation Yrotation
                        End Site
                        {
                          OFFSET 0.0081 -0.0158 0.008
                        }
                      }
                    }
                  }
                }
              }
            }
          }
        }
        JOINT rCollar
        {
          OFFSET -1.7069 20.075 5.0056
          CHANNELS 3 Zrotation Xrotation Yrotation
          JOINT rShldr
          {
            OFFSET -13.6458 -0.047 -4.849
            CHANNELS 3 Zrotation Xrotation Yrotation
            JOINT rForeArm
            {
              OFFSET -28.3255 -0.9759 2.2888
              CHANNELS 3 Zrotation Xrotation Yrotation
              JOINT rHand
              {
                OFFSET -22.1583 -0.53 10.8316
                CHANNELS 3 Zrotation Xrotation Yrotation
                JOINT rThumb1
                {
                  OFFSET -0.786 0.112 2.5817
                  CHANNELS 3 Zrotation Xrotation Yrotation
                  JOINT rThumb2
                  {
                    OFFSET -0.3601 -0.878 4.2331
                    CHANNELS 3 Zrotation Xrotation Yrotation
                    JOINT rThumb2_End
                    {
                      OFFSET -1.8127 -1.216 2.2227
                      CHANNELS 3 Zrotation Xrotation Yrotation
                      End Site
                      {
                        OFFSET -0.0181 -0.0122 0.0222
                      }
                    }
                  }
                }
                JOINT rCarpal1
                {
                  OFFSET -0.9571 1.114 1.7695
                  CHANNELS 3 Zrotation Xrotation Yrotation
                  JOINT rIndex1
                  {
                    OFFSET -4.1246 0.487 4.1451
                    CHANNELS 3 Zrotation Xrotation Yrotation
                    JOINT rIndex2
                    {
                      OFFSET -3.4052 -1.454 2.7682
                      CHANNELS 3 Zrotation Xrotation Yrotation
                      JOINT rIndex2_End
                      {
                        OFFSET -1.4531 -1.795 1.2713
                        CHANNELS 3 Zrotation Xrotation Yrotation
                        End Site
                        {
                          OFFSET -0.0145 -0.018 0.0127
                        }
                      }
                    }
                  }
                  JOINT rMid1
                  {
                    OFFSET -5.6954 0.21 2.1184
                    CHANNELS 3 Zrotation Xrotation Yrotation
                    JOINT rMid2
                    {
                      OFFSET -3.9766 -1.54 2.3863
                      CHANNELS 3 Zrotation Xrotation Yrotation
                      JOINT rMid2_End
                      {
                        OFFSET -1.4042 -1.926 1.125
                        CHANNELS 3 Zrotation Xrotation Yrotation
                        End Site
                        {
                          OFFSET -0.014 -0.0193 0.0113
                        }
                      }
                    }
                  }
                }
                JOINT rCarpal2
                {
                  OFFSET -2.0956 0.66 -0.3894
                  CHANNELS 3 Zrotation Xrotation Yrotation
                  JOINT rRing1
                  {
                    OFFSET -5.0395 -0.09 2.4971
                    CHANNELS 3 Zrotation Xrotation Yrotation
                    JOINT rRing2
                    {
                      OFFSET -3.7921 -1.552 1.4806
                      CHANNELS 3 Zrotation Xrotation Yrotation
                      JOINT rRing2_End
                      {
                        OFFSET -1.4655 -1.808 0.9609
                        CHANNELS 3 Zrotation Xrotation Yrotation
                        End Site
                        {
                          OFFSET -0.0147 -0.0181 0.0096
                        }
                      }
                    }
                  }
                  JOINT rPinky1
                  {
                    OFFSET -4.9141 -1.269 0.3592
                    CHANNELS 3 Zrotation Xrotation Yrotation
                    JOINT rPinky2
                    {
                      OFFSET -3.1477 -1.685 0.8462
                      CHANNELS 3 Zrotation Xrotation Yrotation
                      JOINT rPinky2_End
                      {
                        OFFSET -0.8055 -1.585 0.7955
                        CHANNELS 3 Zrotation Xrotation Yrotation
                        End Site
                        {
                          OFFSET -0.0081 -0.0158 0.008
                        }
                      }
                    }
                  }
                }
              }
            }
          }
        }
      }
    }
  }
  JOINT lThigh
  {
    OFFSET 8.367 -8.2066 0.5982
    CHANNELS 3 Zrotation Xrotation Yrotation
    JOINT lShin
    {
      OFFSET 2.1923 -43.463 -0.4932
      CHANNELS 3 Zrotation Xrotation Yrotation
      JOINT lFoot
      {
        OFFSET 0.7333 -45.8593 -2.6451
        CHANNELS 3 Zrotation Xrotation Yrotation
        End Site
        {
          OFFSET 2.6618 -4.2699 12.3931
        }
      }
    }
  }
  JOINT rThigh
  {
    OFFSET -8.367 -8.2066 0.5982
    CHANNELS 3 Zrotation Xrotation Yrotation
    JOINT rShin
    {
      OFFSET -2.1923 -43.463 -0.4931
      CHANNELS 3 Zrotation Xrotation Yrotation
      JOINT rFoot
      {
        OFFSET -0.7333 -45.8593 -2.6451
        CHANNELS 3 Zrotation Xrotation Yrotation
        End Site
        {
          OFFSET -2.6618 -4.2699 12.3931
        }
      }
    }
  }
}
MOTION
Frames:	5
Frame Time:	0.0333333
0 91.7903 2.51682 0 0 -0 0 0 -0 0 0 -0 0 0 -0 0 0 -0 0 0 -0 0 0 -0 1.66051 0.0835086 5.75766 -0.0175111 0.895433 15.7816 7.95139e-016 -1.98785e-016 -0 5.46658e-016 -3.97569e-016 -0 5.96354e-016 0 -0 3.97569e-016 1.98785e-016 9.54166e-015 1.49089e-016 -3.97569e-016 -0 6.4605e-016 0 3.18055e-015 5.96354e-016 0 3.18055e-015 8.94531e-016 -1.98785e-016 6.36111e-015 6.4605e-016 0 3.18055e-015 5.96354e-016 0 3.18055e-015 8.94531e-016 -1.98785e-016 6.36111e-015 1.49089e-016 -3.97569e-016 -0 6.4605e-016 0 3.18055e-015 5.96354e-016 0 3.18055e-015 8.94531e-016 -1.98785e-016 6.36111e-015 6.4605e-016 0 3.18055e-015 5.96354e-016 0 3.18055e-015 8.94531e-016 -1.98785e-016 6.36111e-015 0 0 -0 -1.4496 0.0636048 -5.0245 -1.74811 1.20616 -16.8394 -1.19271e-015 1.98785e-016 -3.18055e-015 -3.97569e-016 1.98785e-016 -3.18055e-015 -2.98177e-016 1.98785e-016 -3.18055e-015 -2.98177e-016 3.97569e-016 -0 4.96962e-016 0 -6.36111e-015 -9.93923e-017 3.97569e-016 -0 -8.94531e-016 5.96354e-016 -0 -3.97569e-016 3.97569e-016 -0 -9.93923e-017 3.97569e-016 -0 -8.94531e-016 5.96354e-016 -0 -3.97569e-016 3.97569e-016 -0 4.96962e-016 0 -6.36111e-015 -9.93923e-017 3.97569e-016 -0 -8.94531e-016 5.96354e-016 -0 -3.97569e-016 3.97569e-016 -0 -9.93923e-017 3.97569e-016 -0 -8.94531e-016 5.96354e-016 -0 -3.97569e-016 3.97569e-016 -0 -4.66111 -0.998717 0.12318 0.00986924 1.54847 0.176523 4.65186 -0.572283 -0.254274 4.66111 -0.998765 -0.123176 -0.00986867 1.54869 -0.176537 -4.65186 -0.572453 0.25427 
4.47581 50.1801 29.9292 -1.91294e-015 4.81516e-015 133.333 0.141248 6.522 -0.0821831 0.294873 13.0438 -0.182417 0.294877 13.0438 -0.182428 6.6623e-005 7.24256 3.78188e-006 1.41851e-006 -27.3681 4.55743e-006 7.34924 -42.8928 29.4452 -50.0586 9.72293 -20.0157 38.8898 -5.61692 -73.4865 -12.6309 -16.672 3.24833 -3.4232e-006 1.01148e-006 -2.21667e-006 -2.01323e-006 1.63281e-007 -2.5183e-006 -5.61764e-007 2.25817e-006 -4.08293e-008 -2.38542e-015 6.36111e-015 -6.36111e-015 -3.4232e-006 1.01148e-006 -2.21667e-006 -2.01323e-006 1.63281e-007 -2.5183e-006 -5.61764e-007 2.25817e-006 -4.08293e-008 -3.4232e-006 1.01148e-006 -2.21667e-006 -2.01323e-006 1.63281e-007 -2.5183e-006 -5.61764e-007 2.25817e-006 -4.08293e-008 -2.38542e-015 6.36111e-015 -6.36111e-015 -3.4232e-006 1.01148e-006 -2.21667e-006 -2.01323e-006 1.63281e-007 -2.5183e-006 -5.61764e-007 2.25817e-006 -4.08293e-008 -3.4232e-006 1.01148e-006 -2.21667e-006 -2.01323e-006 1.63281e-007 -2.5183e-006 -5.61764e-007 2.25817e-006 -4.08293e-008 3.55399 -29.9371 -20.8735 49.2129 6.37444 13.9919 2.12714 -7.78859 64.2432 11.4178 -2.22865 -21.026 3.40278e-007 2.72705e-007 7.31234e-007 6.80556e-007 5.4541e-007 1.46247e-006 3.40278e-007 2.72705e-007 7.31234e-007 7.15625e-015 0 -3.97569e-015 3.40278e-007 2.72705e-007 7.31234e-007 6.80556e-007 5.4541e-007 1.46247e-006 3.40278e-007 2.72705e-007 7.31234e-007 3.40278e-007 2.72705e-007 7.31234e-007 6.80556e-007 5.4541e-007 1.46247e-006 3.40278e-007 2.72705e-007 7.31234e-007 7.15625e-015 0 -3.97569e-015 3.40278e-007 2.72705e-007 7.31234e-007 6.80556e-007 5.4541e-007 1.46247e-006 3.40278e-007 2.72705e-007 7.31234e-007 3.40278e-007 2.72705e-007 7.31234e-007 6.80556e-007 5.4541e-007 1.46247e-006 3.40278e-007 2.72705e-007 7.31234e-007 0.861057 -3.77306 3.63292 8.36036 66.9259 -6.64019 13.034 47.9559 -1.68243 0.647685 -2.45342 -3.58688 -9.3768 67.5559 6.90665 -12.1963 48.166 0.988821 
-0.684927 30.5486 43.46 -8.63487e-015 6.82757e-015 -166.667 0.218496 9.32926 -0.109772 0.464843 18.658 -0.261482 0.464843 18.658 -0.261484 -4.34669e-005 11.3125 3.13859e-006 4.71692e-007 -39.8812 2.40404e-007 30.7336 -52.8374 56.5157 -70.5269 12.2373 -31.9589 45.8687 -32.8953 -105.578 -17.8324 -24.0161 4.07363 -2.68694e-006 8.98564e-007 -1.09507e-006 -6.36111e-015 7.95139e-015 2.38542e-015 -6.36111e-015 7.95139e-015 3.18055e-015 -3.18055e-015 1.59028e-015 -0 -2.68694e-006 8.98564e-007 -1.09507e-006 -3.53113e-031 6.36111e-015 3.18055e-015 -3.18055e-015 6.36111e-015 4.77083e-015 -2.68694e-006 8.98564e-007 -1.09507e-006 -3.53113e-031 6.36111e-015 3.18055e-015 -3.18055e-015 6.36111e-015 4.77083e-015 -3.18055e-015 1.59028e-015 -0 -2.68694e-006 8.98564e-007 -1.09507e-006 -3.53113e-031 6.36111e-015 3.18055e-015 -3.18055e-015 6.36111e-015 4.77083e-015 -2.68694e-006 8.98564e-007 -1.09507e-006 -3.53113e-031 6.36111e-015 3.18055e-015 -3.18055e-015 6.36111e-015 4.77083e-015 -3.31793 -39.895 -34.7912 70.6036 8.54971 22.6558 0.096825 14.2425 92.6771 14.9558 -2.94369 -30.7703 -3.18055e-015 -1.19271e-014 -0 3.48024e-006 1.0568e-007 2.99764e-006 -3.48024e-006 -1.0568e-007 -2.99764e-006 4.41391e-031 -7.95139e-015 3.18055e-015 6.36111e-015 -1.59028e-014 3.18055e-015 3.48024e-006 1.0568e-007 2.99764e-006 -3.48024e-006 -1.0568e-007 -2.99764e-006 6.36111e-015 -1.59028e-014 3.18055e-015 3.48024e-006 1.0568e-007 2.99764e-006 -3.48024e-006 -1.0568e-007 -2.99764e-006 4.41391e-031 -7.95139e-015 3.18055e-015 6.36111e-015 -1.59028e-014 3.18055e-015 3.48024e-006 1.0568e-007 2.99764e-006 -3.48024e-006 -1.0568e-007 -2.99764e-006 6.36111e-015 -1.59028e-014 3.18055e-015 3.48024e-006 1.0568e-007 2.99764e-006 -3.48024e-006 -1.0568e-007 -2.99764e-006 3.45783 -5.76158 6.20794 142.407 80.4228 -137.802 19.5114 69.7527 -4.92209 -1.37059 -3.92186 -6.19587 -146.143 79.7062 140.395 -17.3528 70.0869 3.05927 
0.572918 34.8002 40.0534 -7.01671e-015 7.01671e-015 180 0.200789 8.42134 -0.101137 0.423791 16.8423 -0.23639 0.423791 16.8423 -0.23639 1.94537e-005 12.2117 -3.40984e-006 -3.84387e-007 -37.5391 -1.68627e-007 22.4363 -51.1695 47.2787 -66.0677 11.506 -29.0681 46.2455 -25.8149 -97.7563 -17.0228 -21.4888 3.2496 -2.34611e-006 -2.35304e-008 -3.17778e-006 -9.85054e-007 1.61763e-006 4.13809e-006 -9.54166e-015 -1.59028e-015 -1.59028e-015 0 0 -0 -2.34611e-006 -2.35305e-008 -3.17778e-006 -9.85054e-007 1.61763e-006 4.13809e-006 -3.53113e-031 -3.18055e-015 -6.36111e-015 -2.34611e-006 -2.35305e-008 -3.17778e-006 -9.85054e-007 1.61763e-006 4.13809e-006 -3.53113e-031 -3.18055e-015 -6.36111e-015 0 0 -0 -2.34611e-006 -2.35305e-008 -3.17778e-006 -9.85054e-007 1.61763e-006 4.13809e-006 -3.53113e-031 -3.18055e-015 -6.36111e-015 -2.34611e-006 -2.35305e-008 -3.17778e-006 -9.85054e-007 1.61763e-006 4.13809e-006 -3.53113e-031 -3.18055e-015 -6.36111e-015 -0.679692 -37.3527 -30.6812 65.8525 7.95517 20.5992 1.7062 8.38694 87.0334 14.52 -2.27181 -28.7029 -1.59028e-015 -6.36111e-015 -0 -2.38542e-015 -4.37326e-015 -6.36111e-015 -1.59028e-015 -1.59028e-015 -6.36111e-015 -0 -4.77083e-015 -0 -3.97569e-015 -3.97569e-015 1.59028e-014 -3.97569e-015 -4.37326e-015 -6.36111e-015 -1.59028e-015 -4.77083e-015 3.18055e-015 -3.97569e-015 -3.97569e-015 1.59028e-014 -3.97569e-015 -4.37326e-015 -6.36111e-015 -1.59028e-015 -4.77083e-015 3.18055e-015 -0 -4.77083e-015 -0 -3.97569e-015 -3.97569e-015 1.59028e-014 -3.97569e-015 -4.37326e-015 -6.36111e-015 -1.59028e-015 -4.77083e-015 3.18055e-015 -3.97569e-015 -3.97569e-015 1.59028e-014 -3.97569e-015 -4.37326e-015 -6.36111e-015 -1.59028e-015 -4.77083e-015 3.18055e-015 2.68172 -5.54484 5.57131 103.801 84.5231 -99.9209 17.9195 65.0704 -4.0556 -0.909546 -3.99636 -5.55392 -112.58 84.2315 107.719 -16.1729 65.3433 2.57926 
0.568413 34.7185 40.2016 -7.01671e-015 7.01671e-015 180 0.200897 8.18747 -0.0987204 0.422807 16.3745 -0.230385 0.422807 16.3745 -0.230385 2.23737e-005 13.6922 -5.26842e-006 9.77334e-008 -37.8981 -1.10345e-008 20.9322 -50.8052 45.4562 -66.044 11.2574 -28.8903 46.4263 -25.4916 -97.2693 -17.2784 -20.7604 2.72006 -1.59028e-014 1.59028e-015 3.18055e-015 -1.90833e-014 0 4.77083e-015 -6.36111e-015 4.77083e-015 -3.18055e-015 -6.36111e-015 1.59028e-015 -0 5.29669e-031 -4.77083e-015 6.36111e-015 -6.36111e-015 3.18055e-015 3.18055e-015 -4.41391e-032 -1.59028e-015 -1.59028e-015 5.29669e-031 -4.77083e-015 6.36111e-015 -6.36111e-015 3.18055e-015 3.18055e-015 -4.41391e-032 -1.59028e-015 -1.59028e-015 -6.36111e-015 1.59028e-015 -0 5.29669e-031 -4.77083e-015 6.36111e-015 -6.36111e-015 3.18055e-015 3.18055e-015 -4.41391e-032 -1.59028e-015 -1.59028e-015 5.29669e-031 -4.77083e-015 6.36111e-015 -6.36111e-015 3.18055e-015 3.18055e-015 -4.41391e-032 -1.59028e-015 -1.59028e-015 -0.224634 -36.8323 -30.1655 65.8008 7.82563 20.4999 1.7062 8.38693 87.0334 14.7367 -1.83187 -28.7926 1.76556e-031 3.18055e-015 -3.18055e-015 7.95139e-016 3.97569e-015 -6.36111e-015 7.95139e-016 8.74653e-015 -6.36111e-015 -0 -7.95139e-016 -0 -2.38542e-015 -3.97569e-016 -3.18055e-015 1.59028e-015 7.55382e-015 -6.36111e-015 -1.59028e-015 1.19271e-015 -0 -2.38542e-015 -3.97569e-016 -3.18055e-015 1.59028e-015 7.55382e-015 -6.36111e-015 -1.59028e-015 1.19271e-015 -0 -0 -7.95139e-016 -0 -2.38542e-015 -3.97569e-016 -3.18055e-015 1.59028e-015 7.55382e-015 -6.36111e-015 -1.59028e-015 1.19271e-015 -0 -2.38542e-015 -3.97569e-016 -3.18055e-015 1.59028e-015 7.55382e-015 -6.36111e-015 -1.59028e-015 1.19271e-015 -0 2.5313 -5.7788 5.60589 107.861 84.406 -103.925 18.2135 65.227 -4.34458 -0.914142 -4.37522 -5.59662 -116.264 84.0575 111.4 -16.4252 65.4776 2.83342 
